<?xml version="1.0" encoding="UTF-8" standalone="no"?>
<svg width="102px" height="22px" viewBox="0 0 102 22" version="1.1" xmlns="http://www.w3.org/2000/svg" xmlns:xlink="http://www.w3.org/1999/xlink" xmlns:sketch="http://www.bohemiancoding.com/sketch/ns">
    <!-- Generator: Sketch 3.0.2 (7799) - http://www.bohemiancoding.com/sketch -->
    <title>Logo</title>
    <description>Created with Sketch.</description>
    <defs></defs>
    <g id="002" stroke="none" stroke-width="1" fill="none" fill-rule="evenodd" sketch:type="MSPage">
        <g id="Logo" sketch:type="MSLayerGroup">
            <path d="M17.8270758,2.55458824 C19.0289242,3.17291765 20.1470606,3.65536471 20.716303,5.02272941 C21.2757576,6.36654118 20.1246515,12.0169176 20.1380455,15.7900471 C20.1385606,15.9694118 20.1375303,16.1495529 20.1341818,16.3294353 C20.185697,17.6797176 19.6509697,20.3142824 18.5086212,19.6967294 C18.1379697,19.4966588 17.596803,18.3702588 17.1666515,17.0947765 C16.4691364,15.0270353 17.0458485,9.92484706 16.466303,9.81614118 C15.5609242,10.8977647 13.1348182,12.8203059 12.2129545,13.4140471 C10.6363333,14.4294118 10.1322576,13.0273647 9.85381818,12.1152706 C9.51356061,11.0005176 8.20404545,8.52331765 7.94183333,8.3204 C7.74272727,8.1664 7.7265,8.38536471 7.68760606,8.51684706 C7.59256061,8.83985882 7.09157576,12.2793647 6.55092424,14.1566118 C5.97034848,16.1720706 4.59283333,19.4943294 3.95172727,20.2767529 C3.31062121,21.0594353 0.649090909,21.7272 0.114106061,21.7512706 C-0.233878788,21.8333176 1.98771212,17.2966588 2.51419697,15.3798118 C3.2629697,13.4091294 4.40660606,8.86418824 4.55213636,5.81938824 C4.67422727,3.81376471 4.49727273,1.94065882 4.47254545,1.39712941 C4.47280303,0.670611765 5.21590909,0.272282353 5.63369697,0.187129412 C6.11304545,0.0892941176 7.16240909,-0.102494118 8.23521212,1.08835294 C8.86756061,1.79002353 9.84325758,4.12305882 10.1121667,4.70127059 C10.4488182,5.42468235 11.8634242,8.68974118 12.0761818,9.4556 C12.7860606,8.94727059 13.8318182,7.93009412 14.8948333,6.77755294 C16.0361515,5.54011765 17.3075455,3.46590588 17.4484394,2.43863529 C17.5821212,2.39204706 17.7070455,2.48910588 17.8270758,2.55458824 C17.8270758,2.55458824 17.7070455,2.48910588 17.8270758,2.55458824 L17.8270758,2.55458824 L17.8270758,2.55458824 Z" id="Shape" fill="#DA1A21" sketch:type="MSShapeGroup"></path>
            <path d="M52.3182727,16.8219765 C52.3182727,16.8219765 52.5634848,20.13 53.6901212,20.7558353 C54.032697,21.0141412 55.0820606,21.9337412 55.4900606,18.8894588 C55.4900606,18.8894588 55.7499545,15.7592471 55.4637879,14.1516941 C58.4751061,14.1664471 61.2909242,12.6360235 62.1375758,12.0070824 C63.019,11.3525176 63.4509545,10.2882353 63.7144545,9.31014118 C64.0505909,8.06261176 64.2066818,6.63261176 63.9800152,5.84682353 C63.7245,4.96112941 62.9821667,4.89383529 61.4619545,6.82905882 C59.7428939,9.04614118 52.2451212,11.9258118 52.0612121,8.29348235 C52.0478182,7.79084706 52.1070606,6.51898824 52.1923182,5.72336471 C52.2804091,4.90056471 51.7804545,4.53484706 51.2320758,5.10607059 C50.1461364,6.23738824 49.8537879,7.55894118 50.1095606,9.84771765 C50.2579242,11.1752235 51.0718636,12.4302588 51.7178636,12.6862353 C51.7356364,12.9820706 52.3182727,16.8219765 52.3182727,16.8219765 L52.3182727,16.8219765 L52.3182727,16.8219765 L52.3182727,16.8219765 Z" id="Shape" fill="#000000" sketch:type="MSShapeGroup"></path>
            <path d="M49.1544697,12.8850118 C50.0832879,11.8626588 49.7927424,8.42703529 46.2353636,6.75762353 C42.6782424,5.08743529 36.2285455,3.53552941 32.5341364,5.74665882 C31.6364848,6.28371765 33.4052576,9.47501176 34.5025303,8.41927059 C36.6136212,6.38854118 47.0271515,8.71432941 46.5387879,10.7121882 C46.3219091,11.5999529 44.3643333,11.6612941 43.3636515,11.7228941 C42.6496515,9.94451765 41.5389848,9.12404706 40.7951061,9.27804706 C40.1055758,9.42065882 39.8912727,10.0941176 39.7745909,11.7876 C37.3518333,11.8264235 34.5040758,11.8709412 34.261697,11.8745647 C33.2733788,11.8888 33.1190909,11.8554118 32.2562121,10.5455059 C31.9636061,10.1011059 28.9595,4.87261176 28.3328182,4.40025882 C27.9601061,4.11943529 27.4591212,4.31562353 27.3934394,4.64821176 C27.2249848,5.50258824 23.9334242,11.8279765 23.7945909,12.0836941 C23.6008939,12.4400941 23.4708182,12.7354118 23.0540606,12.8469647 C22.6774848,12.9476471 22.2710303,12.8974353 21.8929091,12.9921647 C21.4205152,13.1094118 21.2832273,13.5188706 21.2041515,13.9591294 C21.1364091,14.3346824 21.0812879,14.7268 21.0668636,15.0940706 C21.0555303,15.3839529 21.0243636,15.8731294 21.3867727,15.9562118 C21.7491818,16.0392941 21.7017879,16.6464941 21.5086061,16.9625176 C21.3352576,17.2461882 20.9318939,17.7299294 20.9522424,18.4215059 C20.9725909,19.1130824 21.8671515,19.5587765 22.0417879,20.0052471 C22.1409545,20.2588941 23.0579242,18.4132235 23.2722273,18.1028941 C24.2278333,16.7210353 24.1649848,16.4541882 25.4853182,16.3504 C25.9551364,16.3133882 28.8126818,16.0895059 29.7718939,15.9955529 C30.1384242,15.9590588 30.8019394,15.8889176 31.0989242,16.1306588 C31.4502576,16.4166588 34.4172727,19.8336471 34.9450455,20.0365647 C35.4728182,20.2394824 35.7540909,19.9622824 35.8522273,19.4785412 C35.9982727,18.7641882 35.5959394,18.0671765 35.2665,17.4646353 C35.0892879,17.1395529 34.9177424,16.7953176 34.765,16.4575529 C34.6367273,16.1754353 34.5066515,15.7416471 34.7402727,15.4732471 C34.9195455,15.2674824 35.2909697,15.2568706 35.5379848,15.1906118 C35.6920152,15.1492 37.699303,14.9250588 39.6012424,14.7656235 C39.5484394,16.5947294 39.6939697,18.5364235 40.7204091,19.1366353 C42.2820909,20.0495059 42.2238788,20.2679529 42.9466364,19.5981176 C43.6688788,18.9282824 43.1671212,15.3021647 43.1197273,14.7775294 C43.0504394,14.0067529 47.6896364,14.4972235 49.1544697,12.8850118 C49.1544697,12.8850118 47.6896364,14.4972235 49.1544697,12.8850118 L49.1544697,12.8850118 L49.1544697,12.8850118 Z M29.6078182,12.1504706 C29.5480606,12.2172471 29.3927424,12.2252706 29.3927424,12.2252706 L27.9384697,12.3733176 L27.7514697,12.3733176 L27.6041364,12.3834118 L27.4565455,12.3834118 L27.3390909,12.3929882 L27.2208636,12.3834118 L27.1325152,12.3834118 L27.0441667,12.3834118 L26.9949697,12.3834118 L26.8867879,12.3632235 L26.8180152,12.3435529 L26.7590303,12.3042118 L26.7299242,12.2552941 L26.7000455,12.1859294 L26.7103485,12.1165647 L26.7299242,12.0275294 L28.2135606,9.48018824 C28.2135606,9.48018824 28.3078333,9.25734118 28.4366212,9.26691765 C28.5453182,9.27494118 28.5867879,9.39115294 28.5867879,9.39115294 L29.5990606,11.9589412 C29.5993182,11.9589412 29.6673182,12.0836941 29.6078182,12.1504706 C29.6078182,12.1504706 29.6673182,12.0836941 29.6078182,12.1504706 L29.6078182,12.1504706 L29.6078182,12.1504706 Z" id="Shape" fill="#000000" sketch:type="MSShapeGroup"></path>
            <path d="M92.9057727,15.6717647 C91.2343636,15.7918588 89.6590303,16.0770824 87.9626364,15.9148 C87.4147727,15.8622588 86.4702424,15.8156706 86.0073788,15.51 C84.6517576,14.6149882 89.4017121,13.0157176 89.9825455,12.8078824 C91.63,12.2164706 94.9478333,11.2541647 94.9478333,11.2541647 C94.9478333,11.2541647 98.0650152,10.4761412 98.1585152,8.7912 C98.2721061,6.74364706 96.1790455,5.81757647 94.5738333,5.3064 C93.909803,5.15757647 93.2509242,5.04265882 92.5724697,4.97484706 C92.116303,4.92877647 91.6555,4.90910588 91.1975303,4.89228235 C90.3307879,4.86096471 89.4913485,4.94715294 88.6284697,5.05145882 C87.7498788,5.15757647 85.8724091,5.21270588 85.6004091,6.32668235 C85.4613182,6.89298824 84.8256212,8.06261176 85.3585455,8.57585882 C85.9257273,9.12197647 86.8486212,8.89524706 87.5435606,8.82665882 C88.5032879,8.73141176 89.4529697,8.55204706 90.4137273,8.45576471 C91.1166515,8.38484706 92.0403182,8.228 92.6185758,8.74927059 C93.3346364,9.39581176 91.4427424,10.0081882 91.0630758,10.1707294 C89.6332727,10.7833647 88.138303,11.2228471 86.7033485,11.8222824 C85.3580303,12.3844471 84.0111667,12.9235765 82.6980455,13.5553647 C82.0981515,13.8429176 81.5345758,14.1993176 80.9676515,14.5438118 L80.6946212,14.3577176 L79.0409848,14.5334588 C79.0409848,14.5334588 77.3894091,14.6708941 77.3878636,14.6708941 C76.2746212,14.7630353 75.1575152,14.7943529 74.0419545,14.8466353 C73.4889394,14.8668235 72.6180758,14.8885647 72.182,14.4723765 C71.2227879,13.5589882 71.7575152,12.2936 72.3885758,11.4128235 C73.0773333,10.4512941 74.0486515,9.74056471 75.0490758,9.1344 C75.718,8.72934118 76.4626515,8.39752941 77.2109091,8.17131765 C77.7232273,8.01576471 78.2515152,7.88816471 78.7805758,7.81 C78.8573333,7.95804706 78.9410455,8.10324706 79.0221818,8.24870588 C79.0685455,8.33282353 80.3041364,7.81 80.4233939,7.74788235 C80.8040909,7.54910588 81.3313485,7.15258824 81.3462879,6.67195294 C81.3632879,6.08468235 80.8607576,5.50155294 80.4063939,5.2096 C79.8971667,4.88296471 79.3168485,4.77555294 78.7197879,4.76882353 C78.0722424,4.76209412 77.4190303,4.79962353 76.7779242,4.88607059 C76.3269091,4.94637647 75.8823333,5.04809412 75.4452273,5.17621176 C74.7139697,5.38948235 74.0164545,5.67936471 73.3513939,6.05362353 C72.4707424,6.54797647 71.6078636,7.21056471 70.9167879,7.95002353 C70.5891515,8.30072941 70.2913939,8.69310588 70.0428333,9.10515294 C69.723697,9.63548235 69.489303,10.2204235 69.3056515,10.8102824 C68.8005455,12.4406118 68.9522576,14.4708235 69.6845455,16.0095294 C70.1875909,17.0676 70.964697,17.9840941 71.9622879,18.6006118 C73.2177121,19.3773412 74.8030909,19.6307294 76.2437121,19.3550824 C76.8436061,19.2404235 77.3775606,19.0848706 77.9362424,18.8563294 C78.5232576,18.6171765 79.0950758,18.4398824 79.6473182,18.1215294 C79.7498333,18.0625176 80.9256667,17.3875059 80.9928939,17.4768 C81.1744848,17.7182824 81.2818939,18.0110118 81.4799697,18.2398118 C81.669803,18.4605882 81.9093485,18.6622118 82.1419394,18.8366588 C82.6254091,19.2016 83.1712121,19.3473176 83.7651818,19.4172 C85.2462424,19.5934588 86.7486818,19.6845647 88.2397879,19.7037176 C89.4295303,19.7189882 90.633697,19.6395294 91.8172576,19.5274588 C92.5868939,19.4549882 93.3521515,19.3543059 94.1179242,19.2603529 C96.060303,19.0204235 97.6680909,18.5861176 99.7688788,17.6740235 C100.763894,17.2034824 101.382333,16.5993882 101.759424,16.1534353 C101.537652,16.0118588 101.281879,15.8909882 101.035894,15.7918588 C99.5058939,15.1717176 97.7572121,15.1486824 96.1303636,15.3565176 C95.3833939,15.4522824 94.6317879,15.5257882 93.8819848,15.5943765 C93.5553788,15.6233647 93.229803,15.6482118 92.9057727,15.6717647 C92.9057727,15.6717647 93.229803,15.6482118 92.9057727,15.6717647 L92.9057727,15.6717647 L92.9057727,15.6717647 Z" id="Shape" fill="#000000" sketch:type="MSShapeGroup"></path>
            <path d="M67.8799697,17.5487529 C67.8995455,17.2555059 67.8668333,16.9614824 67.7813182,16.7329412 C67.5585152,16.1436 66.9390455,15.5428706 66.3198333,15.4292471 C65.7583182,15.3257176 65.0893939,15.4339059 64.634,15.7936706 C64.3854394,15.9903765 64.1183333,16.3058824 63.9895455,16.5988706 C63.7072424,17.2423059 63.7355758,18.1994353 64.1495,18.7706588 C64.8513939,19.7365882 66.3373485,19.7365882 67.1633939,18.9541647 C67.5605758,18.5786118 67.8421061,18.1044471 67.8799697,17.5487529 C67.8799697,17.5487529 67.8421061,18.1044471 67.8799697,17.5487529 L67.8799697,17.5487529 L67.8799697,17.5487529 Z" id="Shape" fill="#000000" sketch:type="MSShapeGroup"></path>
        </g>
    </g>
</svg>